# xmcd
#
# Track frame offsets:
#	150
#	20583
#	38362
#	51716
#	73280
#	83514
#	101721
#	117308
#	138898
#	152891
#	168382
#	182157
#	199352
#	213778
#
# Disc length: 3126 seconds
#
# Revision: 1
# Processed by: cddbd v1.5.2PL0 Copyright (c) Steve Scherf et al.
# Submitted via: EZCDAudioConverter 3.1.0.1
#
DISCID=c60c340e
DTITLE=All Gone Fishin'
DYEAR=2006
DGENRE=Country
TTITLE0=Bobby Bare - Out on the Water
TTITLE1=George Jones - Beer, Bait and Ammo
TTITLE2=Lorrie Morgan - Something Fishy's Going on
TTITLE3=Jerry Reed - Front of the Boat
TTITLE4=Merle Haggard - Take Him Fishing
TTITLE5=Patty Loveless With Gary Shiebler - Breathin' Room
TTITLE6=Mel Tillis - Three Little Fishes
TTITLE7=Porter Wagoner - White Cap Hell
TTITLE8=Arlo Guthrie - Talking Fishing Blues
TTITLE9=Gary Shielbler With Marcia Ramirez - As Country Could Be
TTITLE10=Little Jimmy Dickens With Brad Paisley On Guitar - The Picture
TTITLE11=Bryan White With Rachel Proctor - Take Me Fishing
TTITLE12=Danny Gilley - Fishin' Man Blues
TTITLE13=Tanya Tucker - Sleepwalking
EXTD=
EXTT0=
EXTT1=
EXTT2=
EXTT3=
EXTT4=
EXTT5=
EXTT6=
EXTT7=
EXTT8=
EXTT9=
EXTT10=
EXTT11=
EXTT12=
EXTT13=
PLAYORDER=
